<?xml version="1.0" encoding="utf-8"?>
<!-- Generator: Adobe Illustrator 27.3.1, SVG Export Plug-In . SVG Version: 6.00 Build 0)  -->
<svg version="1.1" id="Layer_1" xmlns="http://www.w3.org/2000/svg" xmlns:xlink="http://www.w3.org/1999/xlink" x="0px" y="0px"
	 viewBox="0 0 1024 1024" style="enable-background:new 0 0 1024 1024;" xml:space="preserve">
<style type="text/css">
	.st0{fill:none;stroke:#76CEF1;stroke-width:16;stroke-linecap:round;stroke-linejoin:round;stroke-miterlimit:10;}
</style>
<g>
	<g>
		<path class="st0" d="M371.66,937v-25.29c0-55.17-44.73-99.9-99.9-99.9h-80.89c-55.17,0-99.9,44.73-99.9,99.9V937"/>
		<circle class="st0" cx="231.32" cy="732.09" r="79.71"/>
	</g>
	<g>
		<path class="st0" d="M652.34,937v-25.29c0-55.17-44.73-99.9-99.9-99.9h-80.89c-55.17,0-99.9,44.73-99.9,99.9V937"/>
		<circle class="st0" cx="512" cy="732.09" r="79.71"/>
	</g>
	<g>
		<path class="st0" d="M933.03,937v-25.29c0-55.17-44.73-99.9-99.9-99.9h-80.89c-55.17,0-99.9,44.73-99.9,99.9V937"/>
		<circle class="st0" cx="792.68" cy="732.09" r="79.71"/>
	</g>
</g>
<g>
	<path class="st0" d="M432.23,204.04c-49.24,28.1-82.9,81.14-82.92,141.39c-0.01,49.39,21.99,93.63,56.72,123.48
		c16.22,13.94,25.77,34.1,25.77,55.48v21.95h160.39v-21.96c0-21.14,9.14-41.31,25.24-55.02c35.04-29.84,57.26-74.27,57.26-123.9
		c0-88.96-71.4-161.24-160.02-162.67c-19.3-0.31-37.91,2.84-55.25,8.87"/>
	<line class="st0" x1="416.73" y1="579.41" x2="607.27" y2="579.41"/>
	<line class="st0" x1="446.95" y1="612.47" x2="577.05" y2="612.47"/>
</g>
<g>
	<line class="st0" x1="301.31" y1="345.43" x2="253.06" y2="345.43"/>
	<line class="st0" x1="769.92" y1="345.43" x2="721.67" y2="345.43"/>
</g>
<g>
	<line class="st0" x1="362.87" y1="196.82" x2="328.75" y2="162.69"/>
	<line class="st0" x1="694.23" y1="528.17" x2="660.11" y2="494.05"/>
</g>
<g>
	<line class="st0" x1="511.49" y1="87" x2="511.49" y2="135.26"/>
</g>
<g>
	<line class="st0" x1="362.87" y1="494.05" x2="328.75" y2="528.17"/>
	<line class="st0" x1="694.23" y1="162.69" x2="660.11" y2="196.82"/>
</g>
<path class="st0" d="M562.77,292.64c-8.45-8.2-18.87-14.39-30.47-17.8l-5.36-39.52h-29.88l-5.33,39.25
	c-11.86,3.31-22.51,9.51-31.15,17.81l-36.48-14.94l-14.94,25.87l31.04,24.02c-1.47,5.79-2.25,11.85-2.25,18.1s0.78,12.31,2.25,18.1
	l-31.04,24.02l14.94,25.87l36.48-14.94c8.63,8.3,19.28,14.5,31.15,17.81l5.33,39.25h29.88l5.36-39.52
	c11.61-3.41,22.02-9.6,30.47-17.8l37.12,15.2l14.94-25.87l-31.82-24.61c1.37-5.61,2.11-11.47,2.11-17.5c0-6.03-0.74-11.89-2.11-17.5
	l31.82-24.61l-14.94-25.87l-12.24,5.01"/>
<circle class="st0" cx="511.49" cy="345.43" r="34.92"/>
</svg>
