<?xml version="1.0" encoding="utf-8"?>
<!-- Generator: Adobe Illustrator 27.3.1, SVG Export Plug-In . SVG Version: 6.00 Build 0)  -->
<svg version="1.1" id="Layer_1" xmlns="http://www.w3.org/2000/svg" xmlns:xlink="http://www.w3.org/1999/xlink" x="0px" y="0px"
	 viewBox="0 0 1024 1024" style="enable-background:new 0 0 1024 1024;" xml:space="preserve">
<style type="text/css">
	.st0{fill:none;stroke:#76CEF1;stroke-width:16;stroke-linecap:round;stroke-linejoin:round;stroke-miterlimit:10;}
</style>
<path class="st0" d="M401.6,291.42C460.79,220.55,512,156.27,512,87c0,164.16,287.55,300.29,287.55,562.45
	C799.55,808.26,670.81,937,512,937l0,0l0,0h0l0,0c-158.81,0-287.55-128.74-287.55-287.55c0-113.65,54.04-203.61,115.27-282.45
	c7.84-10.09,18.78-23.58,29.29-36.36"/>
<g>
	<polyline class="st0" points="679.56,659.28 679.56,784.48 344.44,784.48 344.44,603.46 512,421.66 679.56,603.46 	"/>
	<polyline class="st0" points="318.09,632.07 512,421.66 705.91,632.07 	"/>
	<rect x="469.88" y="656" class="st0" width="84.23" height="128.48"/>
</g>
</svg>
