<?xml version="1.0" encoding="utf-8"?>
<!-- Generator: Adobe Illustrator 27.3.1, SVG Export Plug-In . SVG Version: 6.00 Build 0)  -->
<svg version="1.1" id="Layer_1" xmlns="http://www.w3.org/2000/svg" xmlns:xlink="http://www.w3.org/1999/xlink" x="0px" y="0px"
	 viewBox="0 0 1024 1024" style="enable-background:new 0 0 1024 1024;" xml:space="preserve">
<style type="text/css">
	.st0{fill:none;stroke:#76CEF1;stroke-width:16;stroke-linecap:round;stroke-linejoin:round;stroke-miterlimit:10;}
</style>
<path class="st0" d="M550.13,692.35v72.78c0,24.52-19.88,44.39-44.39,44.39h-72.78c0,42.12-34.16,76.28-76.28,76.28
	c-42.11,0-76.27-34.16-76.27-76.28h-72.78c-24.52,0-44.39-19.87-44.39-44.39v-72.78c-42.12,0-76.26-34.15-76.26-76.27
	s34.14-76.27,76.26-76.27v-72.78c0-24.52,19.87-44.4,44.39-44.4h64.84"/>
<path class="st0" d="M549.81,461.61c0.22,1.78,0.33,3.59,0.33,5.43v72.78"/>
<path class="st0" d="M858.99,422.65h33.62c24.52,0,44.39,19.87,44.39,44.39v298.09c0,24.52-19.87,44.39-44.39,44.39h-72.78
	c0,42.12-34.15,76.27-76.27,76.27c-42.12,0-76.27-34.15-76.27-76.27h-72.78c-24.52,0-44.39-19.87-44.39-44.39v-72.78
	c-42.12,0-76.27-34.15-76.27-76.27s34.15-76.27,76.27-76.27v-72.78c0-1.84,0.11-3.65,0.33-5.43"/>
<g>
	<polyline class="st0" points="272.49,199.12 272.49,138.2 817.67,138.2 817.67,461.61 272.49,461.61 272.49,249.52 	"/>
	<path class="st0" d="M723.18,192.91h-356.2c0,21.97-17.81,39.78-39.78,39.78v134.43c21.97,0,39.78,17.81,39.78,39.78h356.2
		c0-21.97,17.81-39.78,39.78-39.78V232.69C740.99,232.69,723.18,214.88,723.18,192.91z"/>
	<circle class="st0" cx="545.08" cy="299.91" r="67.51"/>
</g>
</svg>
