<?xml version="1.0" encoding="utf-8"?>
<!-- Generator: Adobe Illustrator 27.3.1, SVG Export Plug-In . SVG Version: 6.00 Build 0)  -->
<svg version="1.1" id="Layer_1" xmlns="http://www.w3.org/2000/svg" xmlns:xlink="http://www.w3.org/1999/xlink" x="0px" y="0px"
	 viewBox="0 0 1024 1024" style="enable-background:new 0 0 1024 1024;" xml:space="preserve">
<style type="text/css">
	.st0{fill:none;stroke:#76CEF1;stroke-width:16;stroke-linecap:round;stroke-linejoin:round;stroke-miterlimit:10;}
	.st1{fill:none;stroke:#76CEF1;stroke-width:16;stroke-linecap:round;stroke-linejoin:round;}
	.st2{fill:none;stroke:#76CEF1;stroke-width:16;stroke-linecap:round;stroke-linejoin:round;stroke-dasharray:27.5887,27.5887;}
</style>
<path class="st0" d="M706.23,640.11c20.79-24.89,38.77-47.47,38.77-71.79c0,57.65,100.99,105.46,100.99,197.54
	c0,55.78-45.22,100.99-100.99,100.99l0,0l0,0h0l0,0c-55.78,0-100.99-45.22-100.99-100.99c0-39.92,18.98-71.51,40.48-99.2"/>
<path class="st0" d="M802.19,759.16c0,32.11-26.03,58.14-58.14,58.14"/>
<g>
	<g>
		<path class="st1" d="M962,717.29c0,4.7-0.15,9.37-0.44,14"/>
		<path class="st2" d="M958.08,758.64c-19.32,100.6-107.8,176.6-214.03,176.6c-120.37,0-217.95-97.58-217.95-217.95
			s97.58-217.95,217.95-217.95c55.95,0,106.98,21.08,145.57,55.74"/>
		<path class="st1" d="M899.59,564.62c3.27,3.33,6.43,6.76,9.48,10.3"/>
	</g>
</g>
<polyline class="st0" points="914.19,539.3 914.19,579.89 873.6,579.89 "/>
<g>
	<path class="st0" d="M679.23,474.43L478.01,125.9c-28.59-49.53-100.08-49.53-128.68,0L72.06,606.14
		c-28.59,49.53,7.15,111.44,64.34,111.44h348.97"/>
	<g>
		<path class="st0" d="M413.67,500.8L413.67,500.8c-19.14,0-35.09-14.66-36.7-33.72l-15.13-178.74
			c-2.57-30.35,21.37-56.41,51.83-56.41h0c30.46,0,54.4,26.06,51.83,56.41l-15.13,178.74C448.75,486.15,432.8,500.8,413.67,500.8z"
			/>
		<circle class="st0" cx="413.67" cy="594.14" r="45.23"/>
	</g>
</g>
</svg>
