<?xml version="1.0" encoding="utf-8"?>
<!-- Generator: Adobe Illustrator 27.3.1, SVG Export Plug-In . SVG Version: 6.00 Build 0)  -->
<svg version="1.1" id="Layer_1" xmlns="http://www.w3.org/2000/svg" xmlns:xlink="http://www.w3.org/1999/xlink" x="0px" y="0px"
	 viewBox="0 0 1024 1024" style="enable-background:new 0 0 1024 1024;" xml:space="preserve">
<style type="text/css">
	.st0{fill:none;stroke:#76CEF1;stroke-width:16;stroke-linecap:round;stroke-linejoin:round;stroke-miterlimit:10;}
</style>
<g>
	<path class="st0" d="M767.35,87L767.35,87c-103.89,0-168.82,112.46-116.87,202.43l116.87,202.43l116.87-202.43
		C936.17,199.46,871.24,87,767.35,87z"/>
	<circle class="st0" cx="767.35" cy="221.74" r="85.23"/>
</g>
<g>
	<path class="st0" d="M866.11,393.1c20.81,47.59,32.34,100.15,32.34,155.42c0,25.96-2.55,51.33-7.41,75.87
		c0,0.01-0.01,0.02-0.01,0.03c-31.32,158.2-158.69,281.83-318.82,307.62c-20.26,3.26-41.06,4.97-62.25,4.97
		c-47.43,0-92.87-8.49-134.87-24.06c-63.2-23.39-118.64-62.76-161.44-113.19c-57.49-67.73-92.17-155.43-92.17-251.23
		c0-74.17,20.79-143.48,56.85-202.43l0.01-0.01c68.26-111.58,191.23-186.04,331.62-186.04c32.35,0,63.77,3.95,93.82,11.41
		c11.78,2.92,23.35,6.37,34.67,10.34"/>
	<path class="st0" d="M277.65,659.72c-13.09,62.16-15.11,141.01-63.99,140.03"/>
	<path class="st0" d="M178.35,346.09c33.05-15.17,51.86,32.27,78.04,26.54c26.17-5.73,60.53-26.99,85.88-5.73
		s51.53,45.8,37.62,71.98c-13.9,26.17-71.16,51.53-59.71,91.61c8.03,28.09-9.66,49.75-25.47,81.6"/>
	<path class="st0" d="M572.23,932.03c10.75-34.41,100.48-137.35,66.95-153.44c-33.53-16.09-60.53-19.9-112.87-4.36
		c-52.35,15.54-95.7,7.36-142.54-11.45s-77.48,16.36-61.94,36.98c15.54,20.62,55.05,74.4,53.29,113.18"/>
	<path class="st0" d="M603.79,171.45c-37.41,30.24-45.59,74.4-26.78,94.03c18.81,19.63,11.45,54.8-36.81,64.62
		s-43.35,69.52,4.91,76.07c48.26,6.54,100.81,25,101.52,74.66c0.72,49.66-0.92,102.01,52.25,113.46s103.88,7.36,117.78,56.44
		s40.8,52.82,74.38-26.35"/>
</g>
<path class="st0" d="M784.63,461.92c24.69,3.87,42.66,15.82,42.66,29.94c0,17.27-26.83,31.27-59.95,31.27s-59.95-14-59.95-31.27
	c0-14.13,17.97-26.07,42.66-29.94"/>
</svg>
