<?xml version="1.0" encoding="utf-8"?>
<!-- Generator: Adobe Illustrator 27.3.1, SVG Export Plug-In . SVG Version: 6.00 Build 0)  -->
<svg version="1.1" id="Layer_1" xmlns="http://www.w3.org/2000/svg" xmlns:xlink="http://www.w3.org/1999/xlink" x="0px" y="0px"
	 viewBox="0 0 1024 1024" style="enable-background:new 0 0 1024 1024;" xml:space="preserve">
<style type="text/css">
	.st0{fill:none;stroke:#76CEF1;stroke-width:16;stroke-linecap:round;stroke-linejoin:round;stroke-miterlimit:10;}
	.st1{fill:none;stroke:#76CEF1;stroke-width:16;stroke-linecap:round;stroke-linejoin:round;}
	.st2{fill:none;stroke:#76CEF1;stroke-width:16;stroke-linecap:round;stroke-linejoin:round;stroke-dasharray:37.7762,37.7762;}
	
		.st3{fill:none;stroke:#76CEF1;stroke-width:16;stroke-linecap:round;stroke-linejoin:round;stroke-miterlimit:10;stroke-dasharray:31;}
</style>
<polyline class="st0" points="692.2,112 759.52,112 759.52,187.09 264.48,187.09 264.48,112 636.83,112 "/>
<rect x="264.48" y="836.91" transform="matrix(-1 -1.224647e-16 1.224647e-16 -1 1024 1748.9126)" class="st0" width="495.04" height="75.09"/>
<path class="st0" d="M736.19,795.81c-11.28-157.6-87.96-191.25-137.84-225.87C552.21,537.92,559.26,512,559.26,512l0,0v0l0,0l0,0
	c0,0-7.05-25.92,39.09-57.94c53.95-37.44,139.25-73.75,139.25-266.97H512H286.4c0,193.22,85.3,229.52,139.25,266.97
	c46.14,32.03,39.09,57.94,39.09,57.94l0,0l0,0v0l0,0c0,0,7.05,25.92-39.09,57.94C371.7,607.39,286.4,643.69,286.4,836.91H512h225.6"
	/>
<path class="st0" d="M553.76,696.49c-3.03-1.99-6.15-4.04-9.17-6.14c-14.88-10.33-24.87-21.96-29.69-34.57
	c-1.5-3.94-2.47-7.96-2.9-11.86c-0.43,3.9-1.4,7.92-2.9,11.86c-4.82,12.61-14.81,24.24-29.69,34.57c-3.02,2.09-6.14,4.15-9.17,6.14
	c-13.25,8.7-26.96,17.71-37.27,33.81c-9.56,14.93-15.41,34.46-17.71,59.29h193.49c-2.3-24.83-8.15-44.36-17.71-59.29
	C580.72,714.19,567.01,705.19,553.76,696.49z"/>
<path class="st0" d="M360.87,329.96c2.25,4.33,4.63,8.49,7.17,12.46c18.78,29.33,43.75,45.72,67.89,61.58
	c5.51,3.62,11.21,7.36,16.71,11.18c27.11,18.81,45.3,40,54.08,62.98c3,7.86,4.59,15.08,5.29,21.44c0.7-6.37,2.29-13.58,5.29-21.44
	c8.78-22.97,26.97-44.16,54.08-62.98c5.49-3.81,11.19-7.56,16.71-11.18c24.14-15.86,49.11-32.25,67.89-61.58
	c17.41-27.19,28.07-62.77,32.26-107.99C541.2,348.17,362.83,330.16,360.87,329.96z"/>
<g>
	<g>
		<line class="st1" x1="512" y1="499.59" x2="512" y2="515.09"/>
		<line class="st2" x1="512" y1="552.87" x2="512" y2="609.53"/>
		<line class="st1" x1="512" y1="628.42" x2="512" y2="643.92"/>
	</g>
</g>
<path class="st3" d="M211.83,701.62c-34.74-54.86-54.84-119.9-54.84-189.62s20.1-134.76,54.84-189.62"/>
<path class="st3" d="M812.17,322.38c34.74,54.86,54.84,119.9,54.84,189.62s-20.1,134.76-54.84,189.62"/>
<polyline class="st0" points="167.35,327.78 216.54,313.18 231.13,362.37 "/>
<polyline class="st0" points="856.65,692.58 807.46,707.17 792.87,657.99 "/>
</svg>
