<?xml version="1.0" encoding="utf-8"?>
<!-- Generator: Adobe Illustrator 27.3.1, SVG Export Plug-In . SVG Version: 6.00 Build 0)  -->
<svg version="1.1" id="Layer_1" xmlns="http://www.w3.org/2000/svg" xmlns:xlink="http://www.w3.org/1999/xlink" x="0px" y="0px"
	 viewBox="0 0 1024 1024" style="enable-background:new 0 0 1024 1024;" xml:space="preserve">
<style type="text/css">
	.st0{fill:none;stroke:#76CEF1;stroke-width:16;stroke-linecap:round;stroke-linejoin:round;stroke-miterlimit:10;}
</style>
<path class="st0" d="M568.63,247.33c-35.06,45.14-66,96.65-66,161.73c0,90.93,73.72,164.65,164.65,164.65l0,0h0l0,0l0,0
	c90.93,0,164.65-73.72,164.65-164.65C831.93,258.94,667.28,181,667.28,87c0,39.66-29.32,76.47-63.21,117.05"/>
<path class="st0" d="M766.35,405.13c0,54.71-44.35,99.07-99.07,99.07"/>
<g>
	<path class="st0" d="M324.91,633.07h11.87c20.51,0,40.54-6.56,56.86-18.98c20.82-15.85,54.98-35.88,94.76-35.88
		c65.83,0,111.92,54.86,111.92,54.86h61.45c32.12,0,58.15,26.04,58.15,58.15v0c0,32.12-26.04,58.15-58.15,58.15h-159.1"/>
	<path class="st0" d="M358.36,861.52c8.92,0,17.82,0.86,26.57,2.56l114.7,22.34c102.74,20.01,207.91-20.16,271.15-103.57
		l141.17-186.2c13.25-17.48,10.19-42.33-6.91-56.08h0c-15.98-12.84-39.03-11.73-53.7,2.58L718.5,672.79"/>
	<polyline class="st0" points="134.86,735.72 185.01,937 323.49,937 323.49,611.12 103.82,611.12 122.47,685.99 	"/>
	<circle class="st0" cx="245.91" cy="859.1" r="32.92"/>
</g>
</svg>
