<?xml version="1.0" encoding="utf-8"?>
<!-- Generator: Adobe Illustrator 27.3.1, SVG Export Plug-In . SVG Version: 6.00 Build 0)  -->
<svg version="1.1" id="Layer_1" xmlns="http://www.w3.org/2000/svg" xmlns:xlink="http://www.w3.org/1999/xlink" x="0px" y="0px"
	 viewBox="0 0 1024 1024" style="enable-background:new 0 0 1024 1024;" xml:space="preserve">
<style type="text/css">
	.st0{fill:none;stroke:#76CEF1;stroke-width:16;stroke-linecap:round;stroke-linejoin:round;stroke-miterlimit:10;}
	
		.st1{fill:none;stroke:#76CEF1;stroke-width:16;stroke-linecap:round;stroke-linejoin:round;stroke-miterlimit:10;stroke-dasharray:31;}
</style>
<polyline class="st0" points="859.14,388.61 859.14,912 258.76,912 258.76,158.95 "/>
<path class="st0" d="M211.81,112h600.38c25.93,0,46.95,21.02,46.95,46.95v181.86"/>
<g>
	<rect x="331.68" y="197.18" class="st0" width="70.87" height="70.87"/>
	<rect x="487.08" y="197.18" class="st0" width="70.87" height="70.87"/>
	<rect x="331.68" y="362.43" class="st0" width="70.87" height="70.87"/>
	<polyline class="st0" points="458.42,197.18 458.42,232.61 430.2,232.61 430.2,268.04 	"/>
	<polyline class="st0" points="557.94,297.46 487.08,297.46 487.08,362.43 	"/>
	<polyline class="st0" points="557.94,321.73 557.94,362.43 512.6,362.43 512.6,388.61 	"/>
	<line class="st0" x1="557.94" y1="386.64" x2="557.94" y2="433.29"/>
	<line class="st0" x1="426.82" y1="433.29" x2="534.33" y2="433.29"/>
	<polyline class="st0" points="429.89,403.83 456.55,403.83 456.55,369.71 430.2,369.71 	"/>
	<line class="st0" x1="487.08" y1="388.61" x2="487.08" y2="409.97"/>
	<line class="st0" x1="331.68" y1="294.36" x2="331.68" y2="329.94"/>
	<line class="st0" x1="363.6" y1="307.62" x2="331.68" y2="307.62"/>
	<polyline class="st0" points="367.11,335.84 402.55,335.84 402.55,289 	"/>
	<polyline class="st0" points="426.82,289 458.42,289 458.42,340.81 	"/>
</g>
<line class="st1" x1="644.43" y1="197.18" x2="786.23" y2="197.18"/>
<line class="st1" x1="644.43" y1="275.88" x2="786.23" y2="275.88"/>
<line class="st1" x1="644.43" y1="354.59" x2="786.23" y2="354.59"/>
<line class="st1" x1="644.43" y1="433.29" x2="715.33" y2="433.29"/>
<line class="st1" x1="331.68" y1="512" x2="487.08" y2="512"/>
<line class="st1" x1="331.68" y1="590.71" x2="487.08" y2="590.71"/>
<line class="st1" x1="331.68" y1="669.41" x2="487.08" y2="669.41"/>
<line class="st1" x1="331.68" y1="748.12" x2="487.08" y2="748.12"/>
<line class="st1" x1="331.68" y1="826.82" x2="779.35" y2="826.82"/>
<g>
	<rect x="553.08" y="688.68" class="st0" width="56.56" height="59.44"/>
	<rect x="609.65" y="640.44" class="st0" width="56.56" height="107.68"/>
	<rect x="666.22" y="586.56" class="st0" width="56.56" height="161.56"/>
	<rect x="722.79" y="512" class="st0" width="56.56" height="236.12"/>
</g>
<path class="st0" d="M258.76,289.43V158.95c0-25.93-21.02-46.95-46.95-46.95h0c-25.93,0-46.95,21.02-46.95,46.95v130.48h46.95"/>
</svg>
