<?xml version="1.0" encoding="utf-8"?>
<!-- Generator: Adobe Illustrator 27.3.1, SVG Export Plug-In . SVG Version: 6.00 Build 0)  -->
<svg version="1.1" id="Layer_1" xmlns="http://www.w3.org/2000/svg" xmlns:xlink="http://www.w3.org/1999/xlink" x="0px" y="0px"
	 viewBox="0 0 1024 1024" style="enable-background:new 0 0 1024 1024;" xml:space="preserve">
<style type="text/css">
	.st0{fill:none;stroke:#76CEF1;stroke-width:16;stroke-linecap:round;stroke-linejoin:round;stroke-miterlimit:10;}
</style>
<path class="st0" d="M724.47,247.37c10.08-12.07,18.8-23.02,18.8-34.82c0,27.96,48.97,51.14,48.97,95.79
	c0,27.05-21.93,48.97-48.97,48.97l0,0l0,0l0,0l0,0c-27.05,0-48.97-21.93-48.97-48.97c0-15.34,5.78-28.15,13.37-39.49"/>
<path class="st0" d="M718.28,693.46V464.48c0-35.72-16.44-69.45-44.57-91.45L554,279.4H396.03l-119.71,93.62
	c-28.13,22-44.57,55.73-44.57,91.45v396.51c0,41.98,34.03,76.01,76.01,76.01h334.51c41.98,0,76.01-34.03,76.01-76.01V740.2"/>
<rect x="396.03" y="228.41" class="st0" width="157.97" height="50.99"/>
<rect x="418.04" y="186.49" class="st0" width="113.96" height="41.92"/>
<path class="st0" d="M554,186.49H396.03v-67.66c0-17.58,14.25-31.84,31.84-31.84h94.29c17.58,0,31.84,14.25,31.84,31.84V186.49z"/>
<polyline class="st0" points="554,136.75 704.71,136.75 743.27,178.11 "/>
<rect x="311.98" y="508.24" class="st0" width="326.08" height="277.31"/>
</svg>
