<?xml version="1.0" encoding="utf-8"?>
<!-- Generator: Adobe Illustrator 27.3.1, SVG Export Plug-In . SVG Version: 6.00 Build 0)  -->
<svg version="1.1" id="Layer_1" xmlns="http://www.w3.org/2000/svg" xmlns:xlink="http://www.w3.org/1999/xlink" x="0px" y="0px"
	 viewBox="0 0 1024 1024" style="enable-background:new 0 0 1024 1024;" xml:space="preserve">
<style type="text/css">
	.st0{fill:none;stroke:#76CEF1;stroke-width:16;stroke-linecap:round;stroke-linejoin:round;stroke-miterlimit:10;}
	.st1{fill:none;stroke:#76CEF1;stroke-width:16;stroke-linecap:round;stroke-linejoin:round;}
	.st2{fill:none;stroke:#76CEF1;stroke-width:16;stroke-linecap:round;stroke-linejoin:round;stroke-dasharray:29.5656,29.5656;}
</style>
<g>
	<g>
		<path class="st0" d="M370.33,859.09v-25.53c0-55.69-45.15-100.84-100.84-100.84h-81.65C132.15,732.71,87,777.86,87,833.56v25.53"
			/>
		<circle class="st0" cx="228.67" cy="652.25" r="80.47"/>
	</g>
	<g>
		<path class="st0" d="M653.67,859.09v-25.53c0-55.69-45.15-100.84-100.84-100.84h-81.65c-55.69,0-100.84,45.15-100.84,100.84v25.53
			"/>
		<circle class="st0" cx="512" cy="652.25" r="80.47"/>
	</g>
	<g>
		<path class="st0" d="M937,859.09v-25.53c0-55.69-45.15-100.84-100.84-100.84h-81.65c-55.69,0-100.84,45.15-100.84,100.84v25.53"/>
		<circle class="st0" cx="795.33" cy="652.25" r="80.47"/>
	</g>
</g>
<path class="st0" d="M302.16,171.07h45.19c12.69,0,22.98,10.28,22.98,22.97v22.36"/>
<path class="st0" d="M370.34,337.66v22.36c0,12.7-10.29,22.98-22.98,22.98h-75.91l-42.78,95.95L185.9,383h-75.92
	C97.29,383,87,372.72,87,360.02V194.04c0-12.69,10.28-22.97,22.97-22.97H265"/>
<path class="st0" d="M680.39,277.04c0-61.92-75.39-112.12-168.39-112.12s-168.39,50.2-168.39,112.12
	c0,52.47,54.12,96.51,127.21,108.74L512,478.95l41.17-93.17C626.27,373.54,680.39,329.5,680.39,277.04z"/>
<path class="st0" d="M823.52,415.77l-28.19,63.18l-42.93-96.2c-27.57-1.86-52.26-14.26-70.06-33.21c-7.03-7.48-12.98-16-17.6-25.28"
	/>
<path class="st0" d="M664.76,229.8c17.36-34.82,53.32-58.73,94.88-58.73h71.4c29.26,0,55.75,11.87,74.92,31.04
	c19.18,19.17,31.04,45.66,31.04,74.92c0,56.1-43.59,102.01-98.75,105.72"/>
<g>
	<g>
		<line class="st1" x1="422.59" y1="248.54" x2="438.09" y2="248.54"/>
		<line class="st2" x1="467.65" y1="248.54" x2="571.13" y2="248.54"/>
		<line class="st1" x1="585.91" y1="248.54" x2="601.41" y2="248.54"/>
	</g>
</g>
<g>
	<g>
		<line class="st1" x1="422.59" y1="310.96" x2="438.09" y2="310.96"/>
		<line class="st2" x1="467.65" y1="310.96" x2="571.13" y2="310.96"/>
		<line class="st1" x1="585.91" y1="310.96" x2="601.41" y2="310.96"/>
	</g>
</g>
<g>
	<g>
		<line class="st1" x1="139.25" y1="248.54" x2="154.75" y2="248.54"/>
		<line class="st2" x1="184.32" y1="248.54" x2="287.8" y2="248.54"/>
		<line class="st1" x1="302.58" y1="248.54" x2="318.08" y2="248.54"/>
	</g>
</g>
<g>
	<g>
		<line class="st1" x1="139.25" y1="310.96" x2="154.75" y2="310.96"/>
		<line class="st2" x1="184.32" y1="310.96" x2="287.8" y2="310.96"/>
		<line class="st1" x1="302.58" y1="310.96" x2="318.08" y2="310.96"/>
	</g>
</g>
<g>
	<g>
		<line class="st1" x1="711.46" y1="248.54" x2="726.96" y2="248.54"/>
		<line class="st2" x1="756.52" y1="248.54" x2="860" y2="248.54"/>
		<line class="st1" x1="874.79" y1="248.54" x2="890.29" y2="248.54"/>
	</g>
</g>
<g>
	<g>
		<line class="st1" x1="711.46" y1="310.96" x2="726.96" y2="310.96"/>
		<line class="st2" x1="756.52" y1="310.96" x2="860" y2="310.96"/>
		<line class="st1" x1="874.79" y1="310.96" x2="890.29" y2="310.96"/>
	</g>
</g>
</svg>
