<?xml version="1.0" encoding="utf-8"?>
<!-- Generator: Adobe Illustrator 27.3.1, SVG Export Plug-In . SVG Version: 6.00 Build 0)  -->
<svg version="1.1" id="Layer_1" xmlns="http://www.w3.org/2000/svg" xmlns:xlink="http://www.w3.org/1999/xlink" x="0px" y="0px"
	 viewBox="0 0 1024 1024" style="enable-background:new 0 0 1024 1024;" xml:space="preserve">
<style type="text/css">
	.st0{fill:none;stroke:#76CEF1;stroke-width:16;stroke-linecap:round;stroke-linejoin:round;stroke-miterlimit:10;}
</style>
<path class="st0" d="M342.28,306.67c19.13-22.9,35.68-43.67,35.68-66.06c0,53.05,92.92,97.04,92.92,181.76
	c0,51.32-41.6,92.92-92.92,92.92l0,0l0,0h0l0,0c-51.32,0-92.92-41.6-92.92-92.92c0-36.73,17.46-65.8,37.25-91.27"/>
<g>
	<circle class="st0" cx="377.95" cy="377.95" r="265.95"/>
	<circle class="st0" cx="377.95" cy="377.95" r="189.73"/>
	<path class="st0" d="M635.64,556.96l245.71,204.57c2.04,1.7,3.98,3.47,5.82,5.32c32.81,32.81,33.41,86.72-0.1,120.23
		c-35.39,35.39-93.53,32.74-125.55-5.72L526.26,598.76"/>
</g>
<line class="st0" x1="761.53" y1="881.35" x2="881.35" y2="761.53"/>
<path class="st0" d="M431.45,423.58c0,29.55-23.95,53.5-53.5,53.5"/>
</svg>
