<?xml version="1.0" encoding="utf-8"?>
<!-- Generator: Adobe Illustrator 27.3.1, SVG Export Plug-In . SVG Version: 6.00 Build 0)  -->
<svg version="1.1" id="Layer_1" xmlns="http://www.w3.org/2000/svg" xmlns:xlink="http://www.w3.org/1999/xlink" x="0px" y="0px"
	 viewBox="0 0 1024 1024" style="enable-background:new 0 0 1024 1024;" xml:space="preserve">
<style type="text/css">
	.st0{fill:none;stroke:#76CEF1;stroke-width:16;stroke-linecap:round;stroke-linejoin:round;stroke-miterlimit:10;}
</style>
<g>
	<path class="st0" d="M441.75,201.17c-24.96,32.14-47,68.82-47,115.16c0,64.75,52.49,117.24,117.24,117.24l0,0h0l0,0l0,0
		c64.75,0,117.24-52.49,117.24-117.24C629.24,209.44,512,153.93,512,87c0,28.24-20.88,54.45-45.01,83.35"/>
	<path class="st0" d="M582.55,313.53c0,38.96-31.58,70.55-70.55,70.55"/>
</g>
<g>
	<g>
		<path class="st0" d="M229.04,515.53l8.52-8.37l8.52,8.37c12.78,12.57,19.98,29.74,19.98,47.66l0,0c0,17.92-7.2,35.09-19.98,47.66
			l-8.52,8.37l-8.52-8.37c-12.78-12.57-19.98-29.74-19.98-47.66l0,0C209.06,545.27,216.26,528.09,229.04,515.53z"/>
		<g>
			<path class="st0" d="M170.15,774.25l-11.94,0.1l-0.1,11.94c-0.15,17.92,6.9,35.15,19.58,47.83h0
				c12.67,12.67,29.91,19.73,47.83,19.58l11.94-0.1l0.1-11.94c0.15-17.92-6.9-35.15-19.58-47.83h0
				C205.3,781.15,188.07,774.1,170.15,774.25z"/>
			<path class="st0" d="M170.15,648.17l-11.94,0.1l-0.1,11.94c-0.15,17.92,6.9,35.15,19.58,47.83l0,0
				c12.67,12.67,29.91,19.73,47.83,19.58l11.94-0.1l0.1-11.94c0.15-17.92-6.9-35.15-19.58-47.83h0
				C205.3,655.08,188.07,648.02,170.15,648.17z"/>
			<path class="st0" d="M304.96,774.25l11.94,0.1l0.1,11.94c0.15,17.92-6.9,35.15-19.58,47.83h0
				c-12.67,12.67-29.91,19.73-47.83,19.58l-11.94-0.1l-0.1-11.94c-0.15-17.92,6.9-35.15,19.58-47.83h0
				C269.8,781.15,287.04,774.1,304.96,774.25z"/>
			<path class="st0" d="M304.96,648.17l11.94,0.1l0.1,11.94c0.15,17.92-6.9,35.15-19.58,47.83l0,0
				c-12.67,12.67-29.91,19.73-47.83,19.58l-11.94-0.1l-0.1-11.94c-0.15-17.92,6.9-35.15,19.58-47.83h0
				C269.8,655.08,287.04,648.02,304.96,648.17z"/>
			<line class="st0" x1="237.55" y1="937" x2="237.55" y2="648.17"/>
		</g>
	</g>
	<g>
		<g>
			<path class="st0" d="M444.6,774.25l-11.94,0.1l-0.1,11.94c-0.15,17.92,6.9,35.15,19.58,47.83l0,0
				c12.67,12.67,29.91,19.73,47.83,19.58l11.94-0.1l0.1-11.94c0.15-17.92-6.9-35.15-19.58-47.83h0
				C479.75,781.15,462.52,774.1,444.6,774.25z"/>
			<path class="st0" d="M444.6,648.17l-11.94,0.1l-0.1,11.94c-0.15,17.92,6.9,35.15,19.58,47.83v0
				c12.67,12.67,29.91,19.73,47.83,19.58l11.94-0.1l0.1-11.94c0.15-17.92-6.9-35.15-19.58-47.83h0
				C479.75,655.08,462.52,648.02,444.6,648.17z"/>
			<path class="st0" d="M579.4,774.25l11.94,0.1l0.1,11.94c0.15,17.92-6.9,35.15-19.58,47.83h0
				c-12.67,12.67-29.91,19.73-47.83,19.58l-11.94-0.1l-0.1-11.94c-0.15-17.92,6.9-35.15,19.58-47.83l0,0
				C544.25,781.15,561.48,774.1,579.4,774.25z"/>
			<path class="st0" d="M579.4,648.17l11.94,0.1l0.1,11.94c0.15,17.92-6.9,35.15-19.58,47.83l0,0
				c-12.67,12.67-29.91,19.73-47.83,19.58l-11.94-0.1l-0.1-11.94c-0.15-17.92,6.9-35.15,19.58-47.83l0,0
				C544.25,655.08,561.48,648.02,579.4,648.17z"/>
			<line class="st0" x1="512" y1="937" x2="512" y2="648.17"/>
		</g>
		<path class="st0" d="M503.48,515.53l8.52-8.37l8.52,8.37c12.78,12.57,19.98,29.74,19.98,47.66l0,0c0,17.92-7.2,35.09-19.98,47.66
			l-8.52,8.37l-8.52-8.37c-12.78-12.57-19.98-29.74-19.98-47.66l0,0C483.51,545.27,490.7,528.09,503.48,515.53z"/>
	</g>
	<g>
		<g>
			<path class="st0" d="M719.04,774.25l-11.94,0.1l-0.1,11.94c-0.15,17.92,6.9,35.15,19.58,47.83l0,0
				c12.67,12.67,29.91,19.73,47.83,19.58l11.94-0.1l0.1-11.94c0.15-17.92-6.9-35.15-19.58-47.83h0
				C754.2,781.15,736.96,774.1,719.04,774.25z"/>
			<path class="st0" d="M719.04,648.17l-11.94,0.1l-0.1,11.94c-0.15,17.92,6.9,35.15,19.58,47.83v0
				c12.67,12.67,29.91,19.73,47.83,19.58l11.94-0.1l0.1-11.94c0.15-17.92-6.9-35.15-19.58-47.83h0
				C754.2,655.08,736.96,648.02,719.04,648.17z"/>
			<path class="st0" d="M853.85,774.25l11.94,0.1l0.1,11.94c0.15,17.92-6.9,35.15-19.58,47.83l0,0
				c-12.67,12.67-29.91,19.73-47.83,19.58l-11.94-0.1l-0.1-11.94c-0.15-17.92,6.9-35.15,19.58-47.83h0
				C818.7,781.15,835.93,774.1,853.85,774.25z"/>
			<path class="st0" d="M853.85,648.17l11.94,0.1l0.1,11.94c0.15,17.92-6.9,35.15-19.58,47.83v0
				c-12.67,12.67-29.91,19.73-47.83,19.58l-11.94-0.1l-0.1-11.94c-0.15-17.92,6.9-35.15,19.58-47.83h0
				C818.7,655.08,835.93,648.02,853.85,648.17z"/>
			<line class="st0" x1="786.45" y1="937" x2="786.45" y2="648.17"/>
		</g>
		<path class="st0" d="M777.93,515.53l8.52-8.37l8.52,8.37c12.78,12.57,19.98,29.74,19.98,47.66l0,0c0,17.92-7.2,35.09-19.98,47.66
			l-8.52,8.37l-8.52-8.37c-12.78-12.57-19.98-29.74-19.98-47.66l0,0C757.95,545.27,765.15,528.09,777.93,515.53z"/>
	</g>
</g>
<line class="st0" x1="140.06" y1="937" x2="883.94" y2="937"/>
</svg>
